<?xml version="1.0" standalone="no"?>
<!DOCTYPE svg PUBLIC "-//W3C//DTD SVG 20010904//EN"
 "http://www.w3.org/TR/2001/REC-SVG-20010904/DTD/svg10.dtd">
<svg version="1.0" xmlns="http://www.w3.org/2000/svg"
 width="300.000000pt" height="300.000000pt" viewBox="0 0 300.000000 300.000000"
 preserveAspectRatio="xMidYMid meet">
<metadata>
Created by potrace 1.11, written by Peter Selinger 2001-2013
</metadata>
<g transform="translate(0.000000,300.000000) scale(0.100000,-0.100000)"
fill="#000000" stroke="none">
<path d="M1369 2996 c-2 -2 -34 -6 -70 -10 -80 -7 -238 -46 -334 -83 -328
-123 -612 -371 -780 -678 -82 -149 -143 -333 -170 -514 -20 -129 -13 -371 15
-501 114 -535 490 -962 997 -1130 163 -54 271 -72 448 -73 137 -2 287 7 305
18 3 2 23 6 45 9 61 10 237 71 330 116 142 68 289 173 411 295 358 358 502
851 399 1370 -44 219 -149 439 -277 576 -41 44 -159 143 -190 160 -16 8 -11
-1 18 -33 242 -264 375 -623 369 -996 -3 -131 -7 -168 -37 -297 -93 -404 -350
-731 -722 -919 -101 -52 -223 -95 -321 -115 -28 -6 -63 -14 -80 -17 -51 -11
-316 -13 -390 -3 -83 12 -266 58 -280 70 -5 5 -15 9 -23 9 -23 0 -204 93 -281
145 -135 90 -310 273 -388 405 -69 116 -132 258 -153 338 -5 23 -15 61 -21 84
-30 121 -40 306 -25 448 9 89 52 260 87 348 190 478 617 806 1134 871 107 13
352 6 445 -13 173 -36 333 -96 470 -178 l35 -21 -25 28 c-92 104 -333 234
-481 260 -19 3 -54 11 -79 17 -41 10 -372 22 -381 14z"/>
<path d="M2395 2627 c22 -20 44 -36 48 -37 5 0 -4 10 -20 23 -53 42 -68 50
-28 14z"/>
<path d="M2410 1893 c-60 -9 -122 -37 -157 -71 -68 -66 -83 -178 -37 -270 33
-67 67 -94 210 -167 84 -43 122 -68 136 -90 50 -83 -15 -160 -128 -149 -81 8
-116 44 -129 134 -4 25 -9 48 -11 51 -5 9 -86 -1 -97 -11 -5 -4 -10 -44 -13
-90 -2 -45 -6 -85 -9 -90 -7 -12 88 -50 164 -65 64 -14 176 -14 223 0 122 35
194 134 182 250 -10 103 -61 158 -223 239 -132 67 -168 96 -177 142 -9 48 9
82 52 100 77 32 150 -9 175 -98 7 -24 15 -46 19 -51 3 -4 27 -4 53 -1 l48 7
-3 89 c-2 85 -3 90 -27 102 -53 27 -189 48 -251 39z"/>
<path d="M269 1845 c0 -22 -2 -47 -3 -55 -2 -8 -6 -38 -10 -67 l-7 -52 36 -7
c42 -8 65 0 65 21 0 9 9 34 21 56 22 44 65 69 119 69 l30 0 0 -294 c0 -168 -4
-306 -10 -320 -10 -26 -32 -40 -82 -50 -24 -6 -28 -11 -28 -40 l0 -34 210 0
210 0 0 29 c0 31 -12 42 -50 47 -14 2 -34 12 -45 23 -19 19 -20 34 -21 329
l-1 310 41 0 c72 0 112 -37 130 -122 5 -21 12 -28 31 -28 34 0 77 18 70 30 -3
5 -8 42 -11 82 -3 40 -7 82 -8 93 -3 20 -11 20 -344 20 l-342 0 -1 -40z"/>
<path d="M1042 1851 c3 -30 8 -36 35 -43 36 -9 52 -42 48 -98 -5 -67 -16 -195
-20 -235 -2 -22 -7 -74 -10 -115 -11 -135 -32 -194 -76 -209 -16 -5 -30 -16
-30 -23 -1 -7 -3 -23 -4 -35 -2 -22 -1 -22 132 -21 l134 1 -3 36 c-3 28 -9 37
-25 39 -34 5 -55 37 -56 84 -1 39 8 170 18 257 2 20 7 61 10 90 3 30 7 56 9
58 1 2 61 -126 132 -284 l130 -288 33 2 c18 1 35 4 38 6 2 3 55 132 117 287
62 156 116 279 118 274 3 -5 9 -45 13 -89 4 -44 8 -87 9 -95 9 -72 20 -211 19
-239 -3 -39 -18 -61 -44 -61 -12 0 -23 -11 -29 -26 -21 -54 -24 -53 170 -53
l180 1 0 34 c0 28 -5 36 -27 45 -40 15 -51 36 -62 124 -10 72 -15 120 -37 340
-15 146 -2 195 51 195 18 0 24 7 27 30 3 16 2 33 -1 38 -3 4 -64 8 -135 7
-128 0 -129 0 -139 -25 -5 -14 -13 -34 -18 -45 -5 -11 -48 -123 -95 -250 -47
-126 -89 -235 -92 -242 -4 -6 -63 117 -132 275 l-126 287 -132 0 -133 0 3 -34z"/>
</g>
</svg>
